<svg width="405" height="405" viewBox="0 0 405 405" fill="none" xmlns="http://www.w3.org/2000/svg">
<mask id="path-1-inside-1_72_40" fill="white">
<path d="M120.158 269.208C130.942 279.967 143.739 288.497 157.819 294.311C171.9 300.124 186.987 303.108 202.221 303.09C217.454 303.073 232.535 300.056 246.602 294.21C260.669 288.364 273.447 279.805 284.207 269.022L243.856 228.762C238.383 234.247 231.884 238.601 224.729 241.574C217.574 244.547 209.904 246.082 202.156 246.09C194.408 246.099 186.734 244.582 179.573 241.625C172.411 238.668 165.902 234.33 160.417 228.857L120.158 269.208Z"/>
</mask>
<path d="M120.158 269.208C130.942 279.967 143.739 288.497 157.819 294.311C171.9 300.124 186.987 303.108 202.221 303.09C217.454 303.073 232.535 300.056 246.602 294.21C260.669 288.364 273.447 279.805 284.207 269.022L243.856 228.762C238.383 234.247 231.884 238.601 224.729 241.574C217.574 244.547 209.904 246.082 202.156 246.09C194.408 246.099 186.734 244.582 179.573 241.625C172.411 238.668 165.902 234.33 160.417 228.857L120.158 269.208Z" stroke="#64BAFF" stroke-width="90" mask="url(#path-1-inside-1_72_40)"/>
<mask id="path-2-inside-2_72_40" fill="white">
<path d="M129.126 323.969C128.841 324.443 128.226 324.596 127.755 324.309C101.354 308.202 80.8782 283.964 69.412 255.223C57.8221 226.172 56.0766 194.122 64.443 163.984C72.8093 133.846 90.826 107.282 115.733 88.3625C140.639 69.4429 171.062 59.211 202.34 59.2344C233.617 59.2579 264.025 69.5354 288.903 88.4924C313.781 107.449 331.758 134.04 340.079 164.191C348.4 194.341 346.606 226.388 334.973 255.422C323.464 284.146 302.951 308.353 276.527 324.42C276.055 324.707 275.44 324.553 275.156 324.079L203.089 203.666C202.701 203.018 201.762 203.017 201.374 203.664L129.126 323.969Z"/>
</mask>
<path d="M129.126 323.969C128.841 324.443 128.226 324.596 127.755 324.309C101.354 308.202 80.8782 283.964 69.412 255.223C57.8221 226.172 56.0766 194.122 64.443 163.984C72.8093 133.846 90.826 107.282 115.733 88.3625C140.639 69.4429 171.062 59.211 202.34 59.2344C233.617 59.2579 264.025 69.5354 288.903 88.4924C313.781 107.449 331.758 134.04 340.079 164.191C348.4 194.341 346.606 226.388 334.973 255.422C323.464 284.146 302.951 308.353 276.527 324.42C276.055 324.707 275.44 324.553 275.156 324.079L203.089 203.666C202.701 203.018 201.762 203.017 201.374 203.664L129.126 323.969Z" stroke="black" stroke-width="100" mask="url(#path-2-inside-2_72_40)"/>
</svg>
